<?xml version="1.0" standalone="no"?>
<!DOCTYPE svg PUBLIC "-//W3C//DTD SVG 1.1//EN"
  "http://www.w3.org/Graphics/SVG/1.1/DTD/svg11.dtd">
<svg version="1.1" xmlns="http://www.w3.org/2000/svg" xmlns:xlink="http://www.w3.org/1999/xlink" width="1792" height="1063" viewBox="-992 -32 1792 1063" id="ccdiagram"><filter id="grayscale"><feColorMatrix type="matrix" values="0.3333 0.3333 0.3333 0 0 0.3333 0.3333 0.3333 0 0 0.3333 0.3333 0.3333 0 0 0 0 0 1 0"></feColorMatrix></filter><defs><style type="text/css">@import url('https://fonts.googleapis.com/css?family=Open+Sans:400,700|Inconsolata:400');</style></defs><g><g style="pointer-events: none;"><g><pattern id="gridPatternMinor" x="0" y="37" width="128" height="74" patternUnits="userSpaceOnUse"><path d="M 0 0 L 128 74" stroke="#eee" stroke-width="1"></path><path d="M 128 0 L 0 74" stroke="#eee" stroke-width="1"></path></pattern><polygon points="0 0, 768 444, -192 999, -960 555" fill="url(#gridPatternMinor)"></polygon></g><polygon points="-960 555, -960 565, -192 1009, -192 999" stroke-linejoin="round" stroke="#54626f" stroke-width="1" fill="#f9f9f9"></polygon><polygon points="-192 1009, 768 454, 768 444, -192 999" stroke-linejoin="round" stroke="#54626f" stroke-width="1" fill="#e2e2e2"></polygon></g><g pointer-events="auto"></g><g style="pointer-events: none;"><g><pattern id="gridPatternMajor" x="0" y="37" width="128" height="74" patternUnits="userSpaceOnUse"><path d="M 64 0 L 128 37 64 74 0 37 z" stroke="#54626f" stroke-width="1" fill="none"></path></pattern><polygon points="0 0, 768 444, -192 999, -960 555" fill="url(#gridPatternMajor)"></polygon></g></g><g pointer-events="auto"><g opacity="1"><g id="df6b0516-5ebc-4cd4-8040-89abfc9ad4ad"><g><g><polygon points="-240 731, 448 333, 128 148, -560 546" stroke="#00bcd4" stroke-width="8" fill="none"></polygon></g><g><polygon points="128 148, 96 130, -128 259, -128 296" stroke="#00bcd4" stroke-width="8" fill="#00bcd4"></polygon><text font-family="Inconsolata" font-size="20pt" font-weight="bold" fill="#ffffff" transform="translate(81 165) matrix(0.707 -0.409 0.707 0.409 0 0)" text-anchor="end">New SG</text><g transform="translate(96 139) matrix(0.707 0.409 -0.707 0.409 0 0)"><svg width="23" height="32" style="fill: rgb(255, 255, 255);"><svg xmlns="http://www.w3.org/2000/svg" width="23" height="32" viewBox="0 0 23 32"><path d="M19.429 17.143V5.714h-8v20.304c.911-.482 2.375-1.321 3.804-2.446 1.911-1.5 4.196-3.839 4.196-6.429zm3.428-13.714v13.714c0 7.518-10.518 12.268-10.964 12.464a1.049 1.049 0 0 1-.928 0C10.519 29.411.001 24.661.001 17.143V3.429c0-.625.518-1.143 1.143-1.143h20.571c.625 0 1.143.518 1.143 1.143z"></path></svg></svg></g></g></g></g></g></g><g></g><g pointer-events="auto"><g opacity="1"><g id="91854035-8590-4be5-8023-f1aaa86b69e6"><g><g><polygon points="-272 786, -208 786, 544 352, 544 315, 128 74, -656 527, -656 564" stroke="#3f51b5" stroke-width="8" fill="none"></polygon></g><g><polygon points="128 74, 96 56, -128 185, -128 222" stroke="#3f51b5" stroke-width="8" fill="#3f51b5"></polygon><text font-family="Inconsolata" font-size="20pt" font-weight="bold" fill="#ffffff" transform="translate(88 87) matrix(0.707 -0.409 0.707 0.409 0 0)" text-anchor="end">Private VPC</text><g transform="translate(96 60) matrix(0.707 0.409 -0.707 0.409 0 0)"><svg width="34" height="32" style="fill: rgb(255, 255, 255);"><svg xmlns="http://www.w3.org/2000/svg" width="34" height="32" viewBox="0 0 34 32"><path d="M34.286 20.571a6.858 6.858 0 0 1-6.857 6.857H8c-4.411 0-8-3.589-8-8a7.993 7.993 0 0 1 4.607-7.232c-.018-.25-.036-.518-.036-.768a9.137 9.137 0 0 1 9.143-9.143c3.821 0 7.089 2.339 8.464 5.679a4.439 4.439 0 0 1 2.964-1.107 4.58 4.58 0 0 1 4.571 4.571 4.49 4.49 0 0 1-.732 2.464c3.036.714 5.304 3.429 5.304 6.679z"></path></svg></svg></g></g></g></g></g></g><g></g><g pointer-events="auto"><g opacity="1"><g id="e1883144-6940-4bd2-b219-7a522b92113d"><svg x="-96" y="389" overflow="visible"><polygon points="0 0, 128 74, 64 111, -64 37" fill="#f5b720"></polygon><polygon points="0 0, 128 74, 64 111, -64 37" fill="none" stroke-width="20" stroke="#f5b720" opacity="1"></polygon><g cursor="nwse-resize"><polygon points="0 0, -19 -11, 13 -30, -83 -11, -115 44, -83 26, -64 37" fill="#f5b720"></polygon><polygon points="128 74, 147 85, 179 67, 147 122, 51 141, 83 122, 64 111" fill="#f5b720"></polygon></g></svg></g></g></g><g pointer-events="none"></g><g pointer-events="auto"><g><g cursor="cell"><line x1="112" y1="324" x2="32" y2="426" stroke="red" stroke-width="8" opacity="0"></line><line x1="112" y1="324" x2="32" y2="426" stroke="#000000" stroke-width="2" stroke-linecap="round"></line></g></g><g><g cursor="cell"><line x1="112" y1="324" x2="-32" y2="389" stroke="red" stroke-width="8" opacity="0"></line><line x1="112" y1="324" x2="-32" y2="389" stroke="#000000" stroke-width="2" stroke-linecap="round"></line></g></g><g><g cursor="cell"><line x1="-560" y1="731" x2="-314" y2="588" stroke="red" stroke-width="8" opacity="0"></line><line x1="-560" y1="731" x2="-314" y2="588" stroke="#000000" stroke-width="2" stroke-linecap="round"></line><polygon points="-304 583, -330 588, -316 590, -313 598, -304 583" stroke-linejoin="round" fill="#000000" stroke="#000000" stroke-width="1"></polygon></g></g><g><g><g cursor="cell"><line x1="-192" y1="481" x2="-138" y2="450" stroke="red" stroke-width="8" opacity="0"></line><line x1="-192" y1="481" x2="-138" y2="450" stroke="#000000" stroke-width="2" stroke-linecap="none"></line><polygon points="-128 444, -154 449, -140 451, -137 459, -128 444" stroke-linejoin="round" fill="#000000" stroke="#000000" stroke-width="1"></polygon></g><g cursor="cell"><line x1="-128" y1="518" x2="-74" y2="487" stroke="red" stroke-width="8" opacity="0"></line><line x1="-128" y1="518" x2="-74" y2="487" stroke="#000000" stroke-width="2" stroke-linecap="none"></line><polygon points="-64 481, -90 486, -76 488, -73 496, -64 481" stroke-linejoin="round" fill="#000000" stroke="#000000" stroke-width="1"></polygon></g><g cursor="cell"><line x1="-192" y1="481" x2="-128" y2="518" stroke="red" stroke-width="8" opacity="0"></line><line x1="-192" y1="481" x2="-128" y2="518" stroke="#000000" stroke-width="2" stroke-linecap="round"></line></g><g cursor="cell"><line x1="-223" y1="536" x2="-160" y2="500" stroke="red" stroke-width="8" opacity="0"></line><line x1="-223" y1="536" x2="-160" y2="500" stroke="#000000" stroke-width="2" stroke-linecap="round"></line></g></g></g></g><g pointer-events="auto"><g opacity="1"><g id="d91ce4a3-da48-49c8-9787-54828fa646b1" transform="translate(0 0)"><svg x="80" y="194" height="147.802" width="128" viewBox="0 0 33.867 39.106"><g transform="translate(427.037 -129.28)"><path d="M-410.104 163.269v4.812l16.669-9.624v-4.812z" fill="#821c17" fill-rule="evenodd"></path><path d="M-426.773 153.645v4.812l16.669 9.624v-4.812z" fill="#ad261f" fill-rule="evenodd"></path><path d="M-426.773 153.645l16.669-9.623 16.669 9.623-16.67 9.624z" fill="#d82f27" fill-rule="evenodd"></path><path d="M-426.773 153.645l16.669 9.624 16.669-9.624M-410.104 163.269v4.812" fill="none" stroke="#f7d5d4" stroke-width=".265"></path><path d="M-426.773 153.645v4.812l16.669 9.624 16.669-9.624v-4.812l-16.67-9.623z" fill="none" stroke="#f7d5d4" stroke-width=".267"></path><path d="M-410.104 156.051v4.812l16.669-9.624v-4.812z" fill="#821c17" fill-rule="evenodd"></path><path d="M-426.773 146.427v4.812l16.669 9.624v-4.812z" fill="#ad261f" fill-rule="evenodd"></path><path d="M-426.773 146.427l16.669-9.623 16.669 9.623-16.67 9.624z" fill="#d82f27" fill-rule="evenodd"></path><path d="M-426.773 146.427l16.669 9.624 16.669-9.624M-410.104 156.051v4.812" fill="none" stroke="#f7d5d4" stroke-width=".265"></path><path d="M-426.773 146.427v4.812l16.669 9.624 16.669-9.624v-4.812l-16.67-9.623z" fill="none" stroke="#f7d5d4" stroke-width=".265"></path><path d="M-410.104 148.833v4.812l16.669-9.623v-4.812z" fill="#821c17" fill-rule="evenodd"></path><path d="M-426.773 139.21v4.812l16.669 9.623v-4.812z" fill="#ad261f" fill-rule="evenodd"></path><path d="M-426.773 139.21l16.669-9.624 16.669 9.624-16.67 9.623z" fill="#d82f27" fill-rule="evenodd"></path><path d="M-426.773 139.21l16.669 9.623 16.669-9.623M-410.104 148.833v4.812" fill="none" stroke="#f7d5d4" stroke-width=".265"></path><path d="M-426.773 139.21v4.812l16.669 9.623 16.669-9.623v-4.812l-16.67-9.624z" fill="none" stroke="#f7d5d4" stroke-width=".265"></path><circle cx="-102.876" cy="379.801" fill="#ffffff" r="2.583" transform="scale(1.22375 .70883) rotate(45)"></circle><path d="M-411.23 137.18l-.855-1.635-2.811-.518 2.42-.977-.017-1.709 2.352 1.032 2.8-.538-.967 1.614 1.748 1.377-2.95-.034zM-409.034 146.416l-5.156-3.026 7.102-1.073z" fill="#ffffff"></path><path d="M-401.907 141.896l-4.515-2.615 4.515-2.615 4.515 2.615z" fill="#821c17"></path><path d="M-401.907 136.666v5.23l4.515-2.615z" fill="#561310" fill-rule="evenodd"></path><path d="M-410.104 129.586l-16.669 9.624v4.811l2.084 1.203-2.084 1.203v4.812l2.084 1.203-2.084 1.203v4.812l16.669 9.624 16.669-9.624v-4.812l-2.084-1.203 2.084-1.203v-4.812l-2.084-1.203 2.084-1.203v-4.811z" fill="none" stroke="#000000" stroke-width=".529"></path></g></svg></g></g><g opacity="1"><g id="15bac333-ecf8-45c0-bad2-1d5d34a0343e" transform="translate(0 0)"><svg x="-160" y="352" height="111" width="128" fill-rule="evenodd"><path d="M64 74v37l64-37V37L64 74z" fill="#b8b8bb"></path><path d="M0 37v37l64 37V74L0 37z" fill="#d2d2d4"></path><path d="M0 37L64 0l64 37-64 37L0 37z" fill="#ececed"></path><path d="M64 73.407l62.111-35.86.514.889-62.487 36.078h-.276L.743 38.072l.514-.89L64 73.407z" fill="#83838a"></path><path d="M63.486 74h1.027v36h-1.027z" fill="#83838a"></path><path d="M128 37v37l-64 37L0 74V37L64 0l64 37zM2.054 38.185v34.63L64 108.627l61.946-35.812v-34.63L64 2.373 2.054 38.185z" fill="#000000"></path></svg><svg x="-105" y="369" width="60" height="35" style="overflow: visible; cursor: default;"><rect transform="matrix(0.707 0.409 -0.707 0.409 0 0)" width="60" height="35" rx="5" ry="5" fill="#4286c5"></rect><text transform="matrix(0.707 0.409 -0.707 0.409 0 0)" font-family="Open Sans" font-size="20pt" text-anchor="middle" x="50%" y="75%" fill="#ffffff"><tspan>M4</tspan></text></svg></g></g><g opacity="1"><g id="d2aad23b-4a3f-4978-bb58-b47e9a669989" transform="translate(0 0)"><svg x="-96" y="389" height="111" width="128" fill-rule="evenodd"><path d="M64 74v37l64-37V37L64 74z" fill="#b8b8bb"></path><path d="M0 37v37l64 37V74L0 37z" fill="#d2d2d4"></path><path d="M0 37L64 0l64 37-64 37L0 37z" fill="#ececed"></path><path d="M64 73.407l62.111-35.86.514.889-62.487 36.078h-.276L.743 38.072l.514-.89L64 73.407z" fill="#83838a"></path><path d="M63.486 74h1.027v36h-1.027z" fill="#83838a"></path><path d="M128 37v37l-64 37L0 74V37L64 0l64 37zM2.054 38.185v34.63L64 108.627l61.946-35.812v-34.63L64 2.373 2.054 38.185z" fill="#000000"></path></svg><svg x="-41" y="406" width="60" height="35" style="overflow: visible; cursor: default;"><rect transform="matrix(0.707 0.409 -0.707 0.409 0 0)" width="60" height="35" rx="5" ry="5" fill="#4286c5"></rect><text transform="matrix(0.707 0.409 -0.707 0.409 0 0)" font-family="Open Sans" font-size="20pt" text-anchor="middle" x="50%" y="75%" fill="#ffffff"><tspan>M4</tspan></text></svg></g></g><g opacity="1"><g id="53e363da-0cb5-46d5-9ada-c21fa631f264" transform="translate(0 0)"><svg x="-320" y="499" height="94" width="97" fill-rule="evenodd"><path d="M0 18.6v18.6l32.333 18.6h32.334L97 37.2V18.6L64.667 0H32.333L0 18.6z" fill="#ececed"></path><path d="M64.667 55.8L97 37.2v37.2L64.667 93V55.8z" fill="#b8b8bb"></path><path d="M32.333 55.8h32.334V93H32.333V55.8zM0 37.2v37.2L32.333 93V55.8L0 37.2z" fill="#d2d2d4"></path><g fill="none" stroke="#83838a" stroke-width="1.04"><path d="M.955 37.877L32.333 55.8h32.334l31.378-17.923M32.333 55.8v36.211M64.667 55.8v36.574"></path></g><path d="M97 18.6v55.8L64.667 93H32.333L0 74.4V18.6L32.333 0h32.334L97 18.6zM32.865 1.989L1.989 19.751v53.498l30.876 17.762h31.27l30.876-17.762V19.751L64.135 1.989h-31.27z" fill="#000000"></path><path d="M69.912 15.583c11.818 6.798 11.818 17.836 0 24.635-11.817 6.798-31.007 6.798-42.824 0-11.818-6.799-11.818-17.837 0-24.635 11.817-6.799 31.007-6.799 42.824 0z" fill="#4286c5"></path><path d="M49.584 14.774c1.824 1.049 1.824 2.753 0 3.802-1.824 1.05-4.786 1.05-6.61 0-1.824-1.049-1.824-2.753 0-3.802 1.824-1.05 4.786-1.05 6.61 0zM60.451 21.025c1.825 1.049 1.825 2.753 0 3.803-1.824 1.049-4.786 1.049-6.61 0-1.824-1.05-1.824-2.754 0-3.803s4.786-1.049 6.61 0zM71.319 27.276c1.824 1.05 1.824 2.754 0 3.803-1.825 1.049-4.787 1.049-6.611 0-1.824-1.049-1.824-2.753 0-3.803 1.824-1.049 4.786-1.049 6.611 0zM38.497 33.654c1.824 1.05 1.824 2.754 0 3.803-1.825 1.05-4.787 1.05-6.611 0-1.824-1.049-1.824-2.753 0-3.803 1.824-1.049 4.786-1.049 6.611 0z" fill="#ffffff"></path><path d="M47.458 15.878c.453.26.393.717-.133 1.02-.526.303-1.32.337-1.773.076-.452-.26-.392-.717.133-1.019.526-.303 1.321-.337 1.773-.077z" fill="#ffffff"></path><path d="M48.111 15.621c1.012.582 1.012 1.526 0 2.108-1.011.582-2.653.582-3.664 0-1.012-.582-1.012-1.526 0-2.108 1.011-.582 2.653-.582 3.664 0zM58.978 21.872c1.012.582 1.012 1.527 0 2.108-1.011.582-2.653.582-3.664 0-1.012-.581-1.012-1.526 0-2.108 1.011-.581 2.653-.581 3.664 0zM69.846 28.124c1.011.581 1.011 1.526 0 2.108-1.012.582-2.654.582-3.665 0-1.011-.582-1.011-1.527 0-2.108 1.011-.582 2.653-.582 3.665 0z" fill="#4286c5"></path><path d="M37.024 34.502c1.011.582 1.011 1.526 0 2.108-1.012.582-2.654.582-3.665 0-1.011-.582-1.011-1.526 0-2.108 1.011-.582 2.653-.582 3.665 0z" fill="#ffffff"></path><g fill="#ffffff"><path d="M52.301 25.172L37.719 33.56l.482.834 14.584-8.388-.484-.834z"></path><path d="M46.993 26.089l6.654-1.146-4.324 5.168c.189-1.691-.757-3.313-2.33-4.022z" stroke="#ffffff" stroke-width=".36"></path></g><g fill="#ffffff"><path d="M43.488 19.937l-6.057 13.797.886.387 6.056-13.798-.885-.386z"></path><path d="M39.76 23.812l4.676-4.854-.405 6.716c-.855-1.474-2.582-2.221-4.271-1.862z" stroke="#ffffff" stroke-width=".36"></path></g><g fill="#ffffff"><path d="M61.953 30.061l-23.985 3.483.14.955 23.985-3.486-.14-.952z"></path><path d="M56.68 28.957l6.608 1.387-5.936 3.209c.804-1.503.526-3.358-.672-4.596z" stroke="#ffffff" stroke-width=".36"></path></g><path d="M37.96 33.977l13.12-7.547M37.873 33.927l5.792-13.134M38.037 34.022l22.478-3.281" fill="#ffffff" stroke="#ffffff" stroke-width="1.93"></path></svg></g></g></g><g pointer-events="auto"></g><g pointer-events="auto"><g opacity="1"><g id="095e3c93-5694-4f3f-beb3-20e135699a4d" transform="translate(0 0)"><svg x="-560" y="731" overflow="visible"><g transform="scale(1.3975424859373686) matrix(0.707 0.409 -0.707 0.409 0 0)"><circle cx="0" cy="0" fill="rgba(0, 0, 0, 0)" r="40"></circle><svg width="100" height="100" x="-50" y="-50" style="fill: rgb(255, 255, 255);"><svg data-name="Layer 1" xmlns="http://www.w3.org/2000/svg" width="100" height="100" viewBox="0 0 100 100"><path d="M71.68 70.3H54.07a1.7 1.7 0 0 0-1.71 1.7h21a1.69 1.69 0 0 0-1.68-1.7zM54.07 73.68h17.61A1.69 1.69 0 0 0 73.37 72h-21a1.7 1.7 0 0 0 1.7 1.68z" fill="none"></path><path d="M73.37 72a1.69 1.69 0 0 1-1.69 1.69H54.07A1.7 1.7 0 0 1 52.36 72H22.2v1.69a4.23 4.23 0 0 0 4.23 4.23h47.12a4.24 4.24 0 0 0 4.25-4.23V72zM75.94 51.88l-2.73 3a1.93 1.93 0 0 1-1.93 1.92H28.66a1.93 1.93 0 0 1-1.92-1.92l-2.3-3h-2.2v3a6.41 6.41 0 0 0 6.42 6.39h42.62a6.42 6.42 0 0 0 6.43-6.39v-3z" fill="#7d7c7c"></path><path d="M73.55 63.59a4.22 4.22 0 0 1 4.25 4.21v3.4a4.24 4.24 0 0 1-4.25 4.23H26.44a4.23 4.23 0 0 1-4.24-4.23v-3.39a4.22 4.22 0 0 1 4.23-4.21zm-1.87 7.61a1.69 1.69 0 1 0 0-3.38H54.07a1.69 1.69 0 1 0 0 3.38h17.61M71.28 22.15a6.42 6.42 0 0 1 6.43 6.38v23.86a6.42 6.42 0 0 1-6.43 6.39H28.66a6.41 6.41 0 0 1-6.42-6.39V28.54a6.41 6.41 0 0 1 6.42-6.38zm1.93 30.24V28.54a1.92 1.92 0 0 0-1.93-1.92H28.66a1.92 1.92 0 0 0-1.92 1.92v23.85a1.93 1.93 0 0 0 1.92 1.92h42.62a1.93 1.93 0 0 0 1.93-1.92" fill="#d2d3d3"></path></svg></svg></g></svg></g></g></g><g pointer-events="auto"><g opacity="1"><g id="c04540ea-f074-4723-a6ab-c1160aa7e4e4"><svg x="-240" y="416" overflow="visible"><text stroke="#ffffff" stroke-width="4" font-family="Open Sans" y="36.5" font-size="25pt" fill="#f5b720" font-weight="bold" transform="matrix(0.707 0.409 -0.707 0.409 0 0)" xml:space="preserve"><tspan x="8" dy="0">Auto Scaling Backend</tspan></text><text font-family="Open Sans" y="36.5" font-size="25pt" fill="#f5b720" font-weight="bold" transform="matrix(0.707 0.409 -0.707 0.409 0 0)" xml:space="preserve"><tspan x="8" dy="0">Auto Scaling Backend</tspan></text></svg></g></g><g opacity="1"><g id="934f9c89-d275-4c6d-b2d2-5458edecb753"><svg x="-529" y="749" overflow="visible"><text stroke="#ffffff" stroke-width="4" font-family="Open Sans" y="36.5" font-size="25pt" fill="#f5b720" font-weight="bold" transform="matrix(0.707 0.409 -0.707 0.409 0 0)" xml:space="preserve"><tspan x="8" dy="0">Clients</tspan></text><text font-family="Open Sans" y="36.5" font-size="25pt" fill="#f5b720" font-weight="bold" transform="matrix(0.707 0.409 -0.707 0.409 0 0)" xml:space="preserve"><tspan x="8" dy="0">Clients</tspan></text></svg></g></g><g opacity="1"><g id="14079f78-215a-4f37-9b0a-7f65a92ea32c"><svg x="-480" y="500" overflow="visible"><text stroke="#ffffff" stroke-width="4" font-family="Open Sans" y="36.5" font-size="25pt" fill="#f5b720" font-weight="bold" transform="matrix(0.707 0.409 -0.707 0.409 0 0)" xml:space="preserve"><tspan x="8" dy="0">Application Load Balancer</tspan></text><text font-family="Open Sans" y="36.5" font-size="25pt" fill="#f5b720" font-weight="bold" transform="matrix(0.707 0.409 -0.707 0.409 0 0)" xml:space="preserve"><tspan x="8" dy="0">Application Load Balancer</tspan></text></svg></g></g><g opacity="1"><g id="b68c50bb-fc3d-4070-b1d5-646812a6ffda"><svg x="64" y="315" overflow="visible"><text stroke="#ffffff" stroke-width="4" font-family="Open Sans" y="36.5" font-size="25pt" fill="#f5b720" font-weight="bold" transform="matrix(0.707 0.409 -0.707 0.409 0 0)" xml:space="preserve"><tspan x="8" dy="0">Redis</tspan></text><text font-family="Open Sans" y="36.5" font-size="25pt" fill="#f5b720" font-weight="bold" transform="matrix(0.707 0.409 -0.707 0.409 0 0)" xml:space="preserve"><tspan x="8" dy="0">Redis</tspan></text></svg></g></g></g><g></g></g></svg>