<?xml version="1.0" ?><svg enable-background="new 0 0 64 64" height="64px" version="1.1" viewBox="0 0 64 64" width="64px" xml:space="preserve" xmlns="http://www.w3.org/2000/svg" xmlns:xlink="http://www.w3.org/1999/xlink"><g id="Layer_1"><g><circle cx="32" cy="32" fill="#4F5D73" r="32"/></g><g opacity="0.2"><g><path d="M10,34.474c-0.004,3.74,0.941,7.53,2.945,11.001c2.004,3.472,4.815,6.185,8.055,8.051l11-19.053H10z" fill="#231F20"/></g><g><path d="M43.001,53.529C50.054,49.458,53.993,42.071,54,34.474l-22,0L43.001,53.529z" fill="#231F20"/></g><g><path d="M43,15.422c-6.583-3.792-14.949-4.074-22.001-0.002L32,34.474L43,15.422z" fill="#231F20"/></g></g><g><g><path d="M10,32.474c-0.004,3.74,0.941,7.53,2.945,11.001c2.004,3.472,4.815,6.185,8.055,8.051l11-19.053H10z" fill="#F5CF87"/></g><g><path d="M43.001,51.529C50.054,47.458,53.993,40.071,54,32.474l-22,0L43.001,51.529z" fill="#F5CF87"/></g><g><path d="M43,13.422c-6.583-3.792-14.949-4.074-22.001-0.002L32,32.474L43,13.422z" fill="#F5CF87"/></g></g></g><g id="Layer_2"/></svg>